# xmcd CD database file
#
# Track frame offsets:
#	182
#	16855
#	36065
#	54205
#	75925
#	93902
#
# Disc length: 1581 seconds
#
# Revision: 0
# Processed by: cddbd v1.4PL0 Copyright (c) Steve Scherf et al.
# Submitted via: CDex 1.50Beta7
#
DISCID=2f062b06
DTITLE=Steven Kowalczyk - Jazz Radio Highlight Tracks From "Moods And Grooves"
DYEAR=1900
DGENRE=Jazz
TTITLE0=Don't Ask Me Why
TTITLE1=Grow Another Garden
TTITLE2=I Fall In Love
TTITLE3=The Love We Never Had
TTITLE4=Polka Dots And Moonbeams
TTITLE5=Mr. Personality
EXTD=
EXTT0=
EXTT1=
EXTT2=
EXTT3=
EXTT4=
EXTT5=
PLAYORDER=
